<?xml version="1.0" encoding="UTF-8"?>
<!--Generator: Apple Native CoreSVG 341-->
<!DOCTYPE svg
PUBLIC "-//W3C//DTD SVG 1.1//EN"
       "http://www.w3.org/Graphics/SVG/1.1/DTD/svg11.dtd">
<svg version="1.1" xmlns="http://www.w3.org/2000/svg" xmlns:xlink="http://www.w3.org/1999/xlink" viewBox="0 0 29.6387 36.3525">
 <g>
  <rect height="36.3525" opacity="0" width="29.6387" x="0" y="0"/>
  <path d="M14.6484 36.3525C15.1855 36.3525 15.6982 36.1084 16.1133 35.6689L28.6865 23.0713C29.1016 22.6074 29.2969 22.1436 29.2969 21.6309C29.2969 20.5566 28.4912 19.7021 27.3926 19.7021C26.8799 19.7021 26.3672 19.8975 26.0254 20.2393L22.5342 23.6328L14.624 32.3486L6.7627 23.6328L3.27148 20.2393C2.92969 19.8975 2.41699 19.7021 1.9043 19.7021C0.805664 19.7021 0 20.5566 0 21.6309C0 22.1436 0.195312 22.6074 0.610352 23.0713L13.1836 35.6689C13.5986 36.1084 14.1113 36.3525 14.6484 36.3525ZM14.6484 34.0332C15.6738 34.0332 16.3818 33.3252 16.3818 32.2998L16.626 26.2939L16.626 1.95312C16.626 0.805664 15.7959 0 14.6484 0C13.501 0 12.6709 0.805664 12.6709 1.95312L12.6709 26.2939L12.915 32.2998C12.915 33.3252 13.623 34.0332 14.6484 34.0332Z" fill="currentColor"/>
 </g>
</svg>
