<?xml version="1.0" encoding="UTF-8"?>
<!--Generator: Apple Native CoreSVG 341-->
<!DOCTYPE svg
PUBLIC "-//W3C//DTD SVG 1.1//EN"
       "http://www.w3.org/Graphics/SVG/1.1/DTD/svg11.dtd">
<svg version="1.1" xmlns="http://www.w3.org/2000/svg" xmlns:xlink="http://www.w3.org/1999/xlink" viewBox="0 0 29.6387 36.3525">
 <g>
  <rect height="36.3525" opacity="0" width="29.6387" x="0" y="0"/>
  <path d="M1.9043 16.6504C2.41699 16.6504 2.92969 16.4551 3.27148 16.1133L6.7627 12.7197L14.624 4.00391L22.5342 12.7197L26.0254 16.1133C26.3672 16.4551 26.8799 16.6504 27.3926 16.6504C28.4912 16.6504 29.2969 15.7959 29.2969 14.7217C29.2969 14.209 29.1016 13.7451 28.6865 13.2812L16.1133 0.683594C15.6982 0.244141 15.1855 0 14.6484 0C14.1113 0 13.5986 0.244141 13.1836 0.683594L0.610352 13.2812C0.195312 13.7451 0 14.209 0 14.7217C0 15.7959 0.805664 16.6504 1.9043 16.6504ZM14.6484 36.3525C15.7959 36.3525 16.626 35.5469 16.626 34.3994L16.626 10.0586L16.3818 4.05273C16.3818 3.02734 15.6738 2.31934 14.6484 2.31934C13.623 2.31934 12.915 3.02734 12.915 4.05273L12.6709 10.0586L12.6709 34.3994C12.6709 35.5469 13.501 36.3525 14.6484 36.3525Z" fill="currentColor"/>
 </g>
</svg>
