<?xml version="1.0" encoding="UTF-8"?>
<!--Generator: Apple Native CoreSVG 341-->
<!DOCTYPE svg
PUBLIC "-//W3C//DTD SVG 1.1//EN"
       "http://www.w3.org/Graphics/SVG/1.1/DTD/svg11.dtd">
<svg version="1.1" xmlns="http://www.w3.org/2000/svg" xmlns:xlink="http://www.w3.org/1999/xlink" viewBox="0 0 40.0635 42.4561">
 <g>
  <rect height="42.4561" opacity="0" width="40.0635" x="0" y="0"/>
  <path d="M0 22.2412C0 34.9854 8.61816 42.4561 20.3857 42.4561C23.4619 42.4561 26.5381 41.9678 28.4912 41.3574C30.0049 40.8691 30.4932 40.0635 30.4932 39.2578C30.4932 38.4521 29.8584 37.8418 29.0527 37.8418C28.8574 37.8418 28.5645 37.8662 28.1982 37.9639C25.708 38.5742 23.7793 39.0137 21.1182 39.0137C10.7666 39.0137 3.78418 33.0566 3.78418 22.3877C3.78418 12.1826 10.2295 5.15137 20.1904 5.15137C28.7842 5.15137 36.2549 10.3027 36.2549 20.166C36.2549 25.6592 34.375 29.5166 31.3965 29.5166C29.4922 29.5166 28.418 28.5156 28.418 26.7578L28.418 13.8184C28.418 12.6465 27.7588 11.9141 26.6602 11.9141C25.5615 11.9141 24.8779 12.6465 24.8779 13.8184L24.8779 15.5518L24.6826 15.5518C23.7061 13.3301 21.3623 11.9141 18.6279 11.9141C13.6719 11.9141 10.1562 16.1621 10.1562 22.2168C10.1562 28.3447 13.6475 32.666 18.7012 32.666C21.582 32.666 23.877 31.0791 24.9756 28.5156L25.1709 28.5156C25.5127 31.0791 27.8076 32.666 30.8105 32.666C36.3037 32.666 39.7217 27.2705 39.7217 19.9951C39.7217 8.8623 31.5186 1.70898 20.2393 1.70898C8.30078 1.70898 0 9.76562 0 22.2412ZM19.3359 29.1992C16.0889 29.1992 14.0869 26.5381 14.0869 22.1924C14.0869 17.9199 16.0889 15.332 19.3604 15.332C22.7051 15.332 24.8291 17.9932 24.8291 22.168C24.8291 26.4404 22.6807 29.1992 19.3359 29.1992Z" fill="currentColor"/>
 </g>
</svg>
