<?xml version="1.0" encoding="UTF-8"?>
<!--Generator: Apple Native CoreSVG 341-->
<!DOCTYPE svg
PUBLIC "-//W3C//DTD SVG 1.1//EN"
       "http://www.w3.org/Graphics/SVG/1.1/DTD/svg11.dtd">
<svg version="1.1" xmlns="http://www.w3.org/2000/svg" xmlns:xlink="http://www.w3.org/1999/xlink" viewBox="0 0 47.8027 38.1104">
 <g>
  <rect height="38.1104" opacity="0" width="47.8027" x="0" y="0"/>
  <path d="M40.0879 15.0391C38.7451 15.0391 37.6709 13.9404 37.6709 12.6221C37.6709 11.2793 38.7451 10.1807 40.0879 10.1807C41.4307 10.1807 42.5049 11.2793 42.5049 12.6221C42.5049 13.9404 41.4307 15.0391 40.0879 15.0391ZM6.22559 36.8652L41.2354 36.8652C45.3857 36.8652 47.4609 34.8145 47.4609 30.7129L47.4609 10.7422C47.4609 6.64062 45.3857 4.61426 41.2354 4.61426L35.8398 4.61426C34.3506 4.61426 33.8867 4.24805 33.0566 3.34473L31.5674 1.66016C30.6152 0.634766 29.5898 0 27.5879 0L19.8486 0C17.8223 0 16.7969 0.634766 15.8691 1.66016L14.3555 3.34473C13.5498 4.24805 13.0615 4.61426 11.5967 4.61426L6.22559 4.61426C2.0752 4.61426 0 6.64062 0 10.7422L0 30.7129C0 34.8145 2.0752 36.8652 6.22559 36.8652ZM23.7305 31.0059C17.9688 31.0059 13.3301 26.3916 13.3301 20.6055C13.3301 14.7949 17.9688 10.1807 23.7305 10.1807C29.4922 10.1807 34.1064 14.7949 34.1064 20.6055C34.1064 26.3916 29.4922 31.0059 23.7305 31.0059ZM23.7305 27.71C27.6611 27.71 30.835 24.5605 30.835 20.6055C30.835 16.6504 27.6611 13.4766 23.7305 13.4766C19.7998 13.4766 16.6016 16.6504 16.6016 20.6055C16.6016 24.5605 19.8242 27.71 23.7305 27.71Z" fill="currentColor"/>
 </g>
</svg>
