<?xml version="1.0" encoding="UTF-8"?>
<!--Generator: Apple Native CoreSVG 341-->
<!DOCTYPE svg
PUBLIC "-//W3C//DTD SVG 1.1//EN"
       "http://www.w3.org/Graphics/SVG/1.1/DTD/svg11.dtd">
<svg version="1.1" xmlns="http://www.w3.org/2000/svg" xmlns:xlink="http://www.w3.org/1999/xlink" viewBox="0 0 33.8867 34.3506">
 <g>
  <rect height="34.3506" opacity="0" width="33.8867" x="0" y="0"/>
  <path d="M12.9395 34.3506C13.8916 34.3506 14.6484 33.9355 15.1855 33.1055L32.9834 4.95605C33.3984 4.32129 33.5449 3.80859 33.5449 3.2959C33.5449 2.09961 32.7637 1.29395 31.543 1.29395C30.6641 1.29395 30.1758 1.58691 29.6387 2.44141L12.8418 29.3945L4.00391 17.4805C3.44238 16.7236 2.90527 16.4062 2.09961 16.4062C0.878906 16.4062 0 17.2607 0 18.4814C0 18.9941 0.219727 19.5557 0.634766 20.0928L10.6201 33.0566C11.3037 33.9355 11.9873 34.3506 12.9395 34.3506Z" fill="currentColor"/>
 </g>
</svg>

