<?xml version="1.0" encoding="UTF-8"?>
<!--Generator: Apple Native CoreSVG 341-->
<!DOCTYPE svg
PUBLIC "-//W3C//DTD SVG 1.1//EN"
       "http://www.w3.org/Graphics/SVG/1.1/DTD/svg11.dtd">
<svg version="1.1" xmlns="http://www.w3.org/2000/svg" xmlns:xlink="http://www.w3.org/1999/xlink" viewBox="0 0 39.7705 39.4287">
 <g>
  <rect height="39.4287" opacity="0" width="39.7705" x="0" y="0"/>
  <path d="M39.4287 19.7021C39.4287 30.5664 30.5908 39.4043 19.7021 39.4043C8.83789 39.4043 0 30.5664 0 19.7021C0 8.83789 8.83789 0 19.7021 0C30.5908 0 39.4287 8.83789 39.4287 19.7021ZM25.2441 12.1582L17.4561 24.7559L13.9404 20.0684C13.4033 19.3359 12.915 19.1406 12.3047 19.1406C11.2793 19.1406 10.5469 19.9463 10.5469 20.9473C10.5469 21.4355 10.7178 21.9238 11.0596 22.3389L15.6006 28.0273C16.1865 28.8086 16.7969 29.1016 17.5537 29.1016C18.2861 29.1016 18.9209 28.7598 19.3848 28.0273L28.0762 14.2578C28.3691 13.8184 28.6377 13.3057 28.6377 12.8174C28.6377 11.7676 27.7588 11.1328 26.7822 11.1328C26.1963 11.1328 25.6348 11.4746 25.2441 12.1582Z" fill="currentColor"/>
 </g>
</svg>
