<?xml version="1.0" encoding="UTF-8"?>
<!--Generator: Apple Native CoreSVG 341-->
<!DOCTYPE svg
PUBLIC "-//W3C//DTD SVG 1.1//EN"
       "http://www.w3.org/Graphics/SVG/1.1/DTD/svg11.dtd">
<svg version="1.1" xmlns="http://www.w3.org/2000/svg" xmlns:xlink="http://www.w3.org/1999/xlink" viewBox="0 0 34.3994 21.0693">
 <g>
  <rect height="21.0693" opacity="0" width="34.3994" x="0" y="0"/>
  <path d="M17.041 21.0693C17.5781 21.0693 18.1152 20.874 18.4814 20.459L33.4717 5.37109C33.8379 5.00488 34.0576 4.5166 34.0576 3.95508C34.0576 2.80762 33.2031 1.92871 32.0557 1.92871C31.5186 1.92871 30.9814 2.17285 30.6152 2.51465L15.8936 17.2852L18.1641 17.2852L3.44238 2.51465C3.07617 2.17285 2.58789 1.92871 2.02637 1.92871C0.878906 1.92871 0 2.80762 0 3.95508C0 4.5166 0.219727 5.00488 0.585938 5.37109L15.6006 20.459C15.9912 20.874 16.4795 21.0693 17.041 21.0693Z" fill="currentColor"/>
 </g>
</svg>
