<?xml version="1.0" encoding="UTF-8"?>
<!--Generator: Apple Native CoreSVG 341-->
<!DOCTYPE svg
PUBLIC "-//W3C//DTD SVG 1.1//EN"
       "http://www.w3.org/Graphics/SVG/1.1/DTD/svg11.dtd">
<svg version="1.1" xmlns="http://www.w3.org/2000/svg" xmlns:xlink="http://www.w3.org/1999/xlink" viewBox="0 0 39.7705 39.4287">
 <g>
  <rect height="39.4287" opacity="0" width="39.7705" x="0" y="0"/>
  <path d="M9.93652 21.875C9.08203 21.875 8.44727 21.2158 8.44727 20.3857C8.44727 19.5312 9.08203 18.8721 9.93652 18.8721L18.1885 18.8721L18.1885 7.8125C18.1885 6.95801 18.8477 6.29883 19.6777 6.29883C20.5322 6.29883 21.1914 6.95801 21.1914 7.8125L21.1914 20.3857C21.1914 21.2158 20.5322 21.875 19.6777 21.875ZM19.7021 39.4043C30.5908 39.4043 39.4287 30.5664 39.4287 19.7021C39.4287 8.83789 30.5908 0 19.7021 0C8.83789 0 0 8.83789 0 19.7021C0 30.5664 8.83789 39.4043 19.7021 39.4043Z" fill="currentColor"/>
 </g>
</svg>
