<?xml version="1.0" encoding="UTF-8"?>
<!--Generator: Apple Native CoreSVG 341-->
<!DOCTYPE svg
PUBLIC "-//W3C//DTD SVG 1.1//EN"
       "http://www.w3.org/Graphics/SVG/1.1/DTD/svg11.dtd">
<svg version="1.1" xmlns="http://www.w3.org/2000/svg" xmlns:xlink="http://www.w3.org/1999/xlink" viewBox="0 0 39.7705 39.4287">
 <g>
  <rect height="39.4287" opacity="0" width="39.7705" x="0" y="0"/>
  <path d="M39.4287 19.7021C39.4287 30.5664 30.5908 39.4043 19.7021 39.4043C8.83789 39.4043 0 30.5664 0 19.7021C0 8.83789 8.83789 0 19.7021 0C30.5908 0 39.4287 8.83789 39.4287 19.7021ZM17.3828 27.71C17.3828 28.9551 18.4814 29.9316 19.7021 29.9316C20.9473 29.9316 22.0459 28.9795 22.0459 27.71C22.0459 26.4404 20.9717 25.4639 19.7021 25.4639C18.457 25.4639 17.3828 26.4648 17.3828 27.71ZM17.6514 11.1572L17.9443 21.5576C17.9688 22.6807 18.5791 23.3154 19.7021 23.3154C20.8008 23.3154 21.4111 22.7051 21.4355 21.5576L21.7285 11.1816C21.7529 10.0342 20.874 9.17969 19.6777 9.17969C18.4814 9.17969 17.627 10.0098 17.6514 11.1572Z" fill="currentColor"/>
 </g>
</svg>
