<?xml version="1.0" encoding="UTF-8"?>
<!--Generator: Apple Native CoreSVG 341-->
<!DOCTYPE svg
PUBLIC "-//W3C//DTD SVG 1.1//EN"
       "http://www.w3.org/Graphics/SVG/1.1/DTD/svg11.dtd">
<svg version="1.1" xmlns="http://www.w3.org/2000/svg" xmlns:xlink="http://www.w3.org/1999/xlink" viewBox="0 0 40.5029 40.21">
 <g>
  <rect height="40.21" opacity="0" width="40.5029" x="0" y="0"/>
  <path d="M18.3594 40.1855L21.8018 40.1855C22.7783 40.1855 23.4863 39.5996 23.7305 38.6475L24.7314 34.375C25.5371 34.1064 26.2939 33.8135 26.9775 33.4717L30.7129 35.7666C31.4941 36.2549 32.4463 36.1816 33.1055 35.5225L35.5225 33.1055C36.1816 32.4463 36.2793 31.4453 35.7422 30.6396L33.4717 26.9287C33.8135 26.2451 34.1309 25.4883 34.3506 24.7803L38.6719 23.7549C39.5996 23.5352 40.1611 22.8271 40.1611 21.8262L40.1611 18.457C40.1611 17.5049 39.5996 16.7969 38.6719 16.5771L34.3994 15.5273C34.1309 14.6973 33.7891 13.9648 33.5205 13.3545L35.791 9.57031C36.2793 8.74023 36.2549 7.83691 35.5713 7.15332L33.1055 4.73633C32.4219 4.12598 31.5674 3.95508 30.7861 4.44336L26.9775 6.78711C26.3184 6.44531 25.5615 6.15234 24.7314 5.88379L23.7305 1.53809C23.4863 0.585938 22.7783 0 21.8018 0L18.3594 0C17.3828 0 16.6748 0.585938 16.4551 1.53809L15.4297 5.83496C14.6484 6.10352 13.8428 6.39648 13.1836 6.7627L9.39941 4.44336C8.59375 3.95508 7.71484 4.07715 7.05566 4.73633L4.58984 7.15332C3.90625 7.83691 3.88184 8.74023 4.37012 9.57031L6.64062 13.3545C6.37207 13.9648 6.03027 14.6973 5.78613 15.5273L1.51367 16.5771C0.561523 16.7969 0 17.5049 0 18.457L0 21.8262C0 22.8271 0.561523 23.5352 1.51367 23.7549L5.83496 24.7803C6.03027 25.4883 6.34766 26.2451 6.68945 26.9287L4.41895 30.6396C3.88184 31.4453 3.97949 32.4463 4.63867 33.1055L7.05566 35.5225C7.71484 36.1816 8.66699 36.2549 9.47266 35.7666L13.208 33.4717C13.8672 33.8135 14.6484 34.1064 15.4297 34.375L16.4551 38.6475C16.6748 39.5996 17.3828 40.1855 18.3594 40.1855ZM20.0928 26.8066C16.3818 26.8066 13.3789 23.7793 13.3789 20.0928C13.3789 16.4062 16.3818 13.3789 20.0928 13.3789C23.7793 13.3789 26.7822 16.4062 26.7822 20.0928C26.7822 23.7793 23.7793 26.8066 20.0928 26.8066Z" fill="currentColor"/>
 </g>
</svg>
