<?xml version="1.0" encoding="UTF-8"?>
<!--Generator: Apple Native CoreSVG 341-->
<!DOCTYPE svg
PUBLIC "-//W3C//DTD SVG 1.1//EN"
       "http://www.w3.org/Graphics/SVG/1.1/DTD/svg11.dtd">
<svg version="1.1" xmlns="http://www.w3.org/2000/svg" xmlns:xlink="http://www.w3.org/1999/xlink" viewBox="0 0 34.3018 44.3604">
 <g>
  <rect height="44.3604" opacity="0" width="34.3018" x="0" y="0"/>
  <path d="M16.2354 42.2607C23.1445 42.2607 27.9785 38.5254 30.6152 31.0791L33.9355 21.8018C34.1797 21.0938 34.3018 20.459 34.3018 19.8486C34.3018 17.7002 32.6904 16.2354 30.6641 16.2354C29.2725 16.2354 28.0762 17.041 27.417 18.5791L26.3916 21.0205C26.3672 21.0938 26.3184 21.1426 26.2451 21.1426C26.1475 21.1426 26.0986 21.0693 26.0986 20.9717L26.0986 6.20117C26.0986 3.90625 24.6582 2.44141 22.3877 2.44141C21.6064 2.44141 20.8984 2.70996 20.3613 3.17383C20.0684 1.19629 18.75 0 16.8213 0C14.9414 0 13.623 1.2207 13.2812 3.125C12.793 2.68555 12.1338 2.44141 11.4502 2.44141C9.375 2.44141 8.00781 3.88184 8.00781 6.03027L8.00781 8.03223C7.49512 7.51953 6.71387 7.22656 5.9082 7.22656C3.83301 7.22656 2.39258 8.76465 2.39258 10.9619L2.39258 27.5391C2.39258 36.5479 7.86133 42.2607 16.2354 42.2607ZM16.1133 39.2578C9.25293 39.2578 5.24902 34.79 5.24902 27.1729L5.24902 11.3037C5.24902 10.5713 5.7373 10.083 6.46973 10.083C7.17773 10.083 7.69043 10.5713 7.69043 11.3037L7.69043 21.167C7.69043 21.9238 8.3252 22.4609 9.0332 22.4609C9.76562 22.4609 10.4248 21.9238 10.4248 21.167L10.4248 6.46973C10.4248 5.7373 10.9131 5.22461 11.6455 5.22461C12.3535 5.22461 12.8662 5.7373 12.8662 6.46973L12.8662 20.1904C12.8662 20.9473 13.501 21.4844 14.209 21.4844C14.9414 21.4844 15.6006 20.9473 15.6006 20.1904L15.6006 4.02832C15.6006 3.32031 16.1133 2.80762 16.8213 2.80762C17.5293 2.80762 18.042 3.32031 18.042 4.02832L18.042 20.1904C18.042 20.9229 18.6768 21.4844 19.3848 21.4844C20.1172 21.4844 20.7764 20.9229 20.7764 20.1904L20.7764 6.46973C20.7764 5.7373 21.2891 5.22461 21.9971 5.22461C22.7051 5.22461 23.2178 5.7373 23.2178 6.46973L23.2178 25.415C23.2178 26.416 23.8037 27.0264 24.6338 27.0264C25.3662 27.0264 25.9766 26.709 26.4648 25.6592L29.2969 19.4824C29.6387 18.75 30.2979 18.5059 30.9082 18.75C31.5918 18.9941 31.7871 19.6289 31.4697 20.5078L27.9785 30.1514C25.5615 36.9385 21.46 39.2578 16.1133 39.2578Z" fill="white" fill-opacity="0.85"/>
 </g>
</svg>
