<?xml version="1.0" encoding="UTF-8"?>
<!--Generator: Apple Native CoreSVG 341-->
<!DOCTYPE svg
PUBLIC "-//W3C//DTD SVG 1.1//EN"
       "http://www.w3.org/Graphics/SVG/1.1/DTD/svg11.dtd">
<svg version="1.1" xmlns="http://www.w3.org/2000/svg" xmlns:xlink="http://www.w3.org/1999/xlink" viewBox="0 0 33.667 42.749">
 <g>
  <rect height="42.749" opacity="0" width="33.667" x="0" y="0"/>
  <path d="M2.53906 27.7588C2.53906 36.1572 8.05664 41.333 15.8203 41.333C21.9482 41.333 25.5371 38.916 28.125 34.3506C29.7363 31.5674 30.9326 28.0762 32.2021 23.9502C32.7881 22.0947 33.667 19.7021 33.667 18.6279C33.667 17.5781 32.8857 16.8457 31.7383 16.8457C30.3955 16.8457 29.6631 17.7002 28.6621 19.7021L25.9521 25.2197C25.708 25.7568 25.4395 26.001 25.1465 26.001C24.8291 26.001 24.6094 25.8057 24.6094 25.1953L24.6094 4.73633C24.6094 3.54004 23.6572 2.58789 22.4609 2.58789C21.2891 2.58789 20.3125 3.54004 20.3125 4.73633L20.3125 19.4336C19.8242 19.2627 19.2871 19.1162 18.7012 19.0186L18.7012 2.14844C18.7012 0.976562 17.7246 0 16.5527 0C15.3564 0 14.4043 0.976562 14.4043 2.14844L14.4043 18.8232C13.8428 18.8721 13.3057 18.9453 12.7441 19.043L12.7441 3.66211C12.7441 2.46582 11.792 1.51367 10.5957 1.51367C9.42383 1.51367 8.44727 2.46582 8.44727 3.66211L8.44727 20.3857C7.88574 20.6787 7.34863 20.9961 6.81152 21.3135L6.81152 9.66797C6.81152 8.49609 5.85938 7.51953 4.6875 7.51953C3.49121 7.51953 2.53906 8.49609 2.53906 9.66797Z" fill="currentColor"/>
 </g>
</svg>

