<?xml version="1.0" encoding="UTF-8"?>
<!--Generator: Apple Native CoreSVG 341-->
<!DOCTYPE svg
PUBLIC "-//W3C//DTD SVG 1.1//EN"
       "http://www.w3.org/Graphics/SVG/1.1/DTD/svg11.dtd">
<svg version="1.1" xmlns="http://www.w3.org/2000/svg" xmlns:xlink="http://www.w3.org/1999/xlink" viewBox="0 0 38.0371 38.0615">
 <g>
  <rect height="38.0615" opacity="0" width="38.0371" x="0" y="0"/>
  <path d="M0 15.5273C0 24.0967 6.95801 31.0303 15.5273 31.0303C18.8232 31.0303 21.8506 30.0049 24.3652 28.2471L33.4473 37.3535C33.96 37.8418 34.5947 38.0615 35.2539 38.0615C36.6699 38.0615 37.6953 36.9873 37.6953 35.5713C37.6953 34.8877 37.4268 34.2773 37.0117 33.8135L27.9785 24.7559C29.9072 22.168 31.0303 18.9941 31.0303 15.5273C31.0303 6.95801 24.0967 0 15.5273 0C6.95801 0 0 6.95801 0 15.5273ZM3.75977 15.5273C3.75977 9.00879 9.00879 3.75977 15.5273 3.75977C22.0215 3.75977 27.2949 9.00879 27.2949 15.5273C27.2949 22.0215 22.0215 27.2949 15.5273 27.2949C9.00879 27.2949 3.75977 22.0215 3.75977 15.5273Z" fill="currentColor"/>
 </g>
</svg>
