<?xml version="1.0" encoding="UTF-8"?>
<!--Generator: Apple Native CoreSVG 341-->
<!DOCTYPE svg
PUBLIC "-//W3C//DTD SVG 1.1//EN"
       "http://www.w3.org/Graphics/SVG/1.1/DTD/svg11.dtd">
<svg version="1.1" xmlns="http://www.w3.org/2000/svg" xmlns:xlink="http://www.w3.org/1999/xlink" viewBox="0 0 28.3691 43.335">
 <g>
  <rect height="43.335" opacity="0" width="28.3691" x="0" y="0"/>
  <path d="M14.0137 26.8555C17.8711 26.8555 20.5078 24.0234 20.5078 19.8242L20.5078 7.03125C20.5078 2.83203 17.8711 0 14.0137 0C10.1318 0 7.49512 2.83203 7.49512 7.03125L7.49512 19.8242C7.49512 24.0234 10.1318 26.8555 14.0137 26.8555ZM14.0137 33.7891C22.3145 33.7891 28.0273 28.1982 28.0273 20.0195L28.0273 16.0645C28.0273 15.1367 27.2949 14.4043 26.3672 14.4043C25.4639 14.4043 24.7314 15.1367 24.7314 16.0645L24.7314 19.873C24.7314 26.4404 20.5078 30.7617 14.0137 30.7617C7.51953 30.7617 3.2959 26.4404 3.2959 19.873L3.2959 16.0645C3.2959 15.1367 2.56348 14.4043 1.63574 14.4043C0.732422 14.4043 0 15.1367 0 16.0645L0 20.0195C0 28.1982 5.71289 33.7891 14.0137 33.7891ZM5.46875 41.0156L22.5586 41.0156C23.4619 41.0156 24.1943 40.2832 24.1943 39.3555C24.1943 38.4521 23.4619 37.7197 22.5586 37.7197L5.46875 37.7197C4.54102 37.7197 3.80859 38.4521 3.80859 39.3555C3.80859 40.2832 4.54102 41.0156 5.46875 41.0156ZM14.0137 40.2832C14.917 40.2832 15.6494 39.5508 15.6494 38.6475L15.6494 33.0566C15.6494 32.1289 14.917 31.3965 14.0137 31.3965C13.0859 31.3965 12.3535 32.1289 12.3535 33.0566L12.3535 38.6475C12.3535 39.5508 13.0859 40.2832 14.0137 40.2832Z" fill="currentColor"/>
 </g>
</svg>
