<?xml version="1.0" encoding="UTF-8"?>
<!--Generator: Apple Native CoreSVG 341-->
<!DOCTYPE svg
PUBLIC "-//W3C//DTD SVG 1.1//EN"
       "http://www.w3.org/Graphics/SVG/1.1/DTD/svg11.dtd">
<svg version="1.1" xmlns="http://www.w3.org/2000/svg" xmlns:xlink="http://www.w3.org/1999/xlink" viewBox="0 0 39.2822 32.9346">
 <g>
  <rect height="32.9346" opacity="0" width="39.2822" x="0" y="0"/>
  <path d="M26.123 32.9346C28.7598 32.9346 30.9082 30.7861 30.9082 28.1494C30.9082 25.5371 28.7598 23.3887 26.123 23.3887C23.4863 23.3887 21.3379 25.5371 21.3379 28.1494C21.3379 30.7861 23.4863 32.9346 26.123 32.9346ZM26.123 30.3223C24.9023 30.3223 23.9502 29.3701 23.9502 28.1494C23.9502 26.9287 24.9023 25.9766 26.123 25.9766C27.3438 25.9766 28.2959 26.9287 28.2959 28.1494C28.2959 29.3701 27.3438 30.3223 26.123 30.3223ZM23.1201 26.3916L1.75781 26.3916C0.78125 26.3916 0 27.1729 0 28.1494C0 29.1504 0.78125 29.9072 1.75781 29.9072L23.1201 29.9072ZM37.2559 26.3916L29.4922 26.3916L29.4922 29.9072L37.2559 29.9072C38.1592 29.9072 38.9404 29.1504 38.9404 28.1494C38.9404 27.1729 38.1592 26.3916 37.2559 26.3916ZM12.8662 21.2646C15.5029 21.2646 17.6514 19.1162 17.6514 16.4795C17.6514 13.8672 15.5029 11.7188 12.8662 11.7188C10.2295 11.7188 8.08105 13.8672 8.08105 16.4795C8.08105 19.1162 10.2295 21.2646 12.8662 21.2646ZM12.8662 18.6523C11.6455 18.6523 10.6934 17.7002 10.6934 16.4795C10.6934 15.2588 11.6455 14.3066 12.8662 14.3066C14.0869 14.3066 15.0391 15.2588 15.0391 16.4795C15.0391 17.7002 14.0869 18.6523 12.8662 18.6523ZM1.66016 14.7217C0.78125 14.7217 0 15.5029 0 16.4795C0 17.4805 0.78125 18.2373 1.66016 18.2373L9.52148 18.2373L9.52148 14.7217ZM37.1826 14.7217L15.8936 14.7217L15.8936 18.2373L37.1826 18.2373C38.1592 18.2373 38.9404 17.4805 38.9404 16.4795C38.9404 15.5029 38.1592 14.7217 37.1826 14.7217ZM26.123 9.59473C28.7598 9.59473 30.9082 7.44629 30.9082 4.80957C30.9082 2.17285 28.7598 0.0244141 26.123 0.0244141C23.4863 0.0244141 21.3379 2.17285 21.3379 4.80957C21.3379 7.44629 23.4863 9.59473 26.123 9.59473ZM26.123 6.98242C24.9023 6.98242 23.9502 6.00586 23.9502 4.80957C23.9502 3.56445 24.9023 2.63672 26.123 2.63672C27.3438 2.63672 28.2959 3.56445 28.2959 4.80957C28.2959 6.00586 27.3438 6.98242 26.123 6.98242ZM23.2666 3.05176L1.75781 3.05176C0.78125 3.05176 0 3.83301 0 4.80957C0 5.78613 0.78125 6.56738 1.75781 6.56738L23.2666 6.56738ZM37.2559 3.05176L29.1504 3.05176L29.1504 6.56738L37.2559 6.56738C38.1592 6.56738 38.9404 5.78613 38.9404 4.80957C38.9404 3.83301 38.1592 3.05176 37.2559 3.05176Z" fill="currentColor"/>
 </g>
</svg>
