<?xml version="1.0" encoding="UTF-8"?>
<!--Generator: Apple Native CoreSVG 341-->
<!DOCTYPE svg
PUBLIC "-//W3C//DTD SVG 1.1//EN"
       "http://www.w3.org/Graphics/SVG/1.1/DTD/svg11.dtd">
<svg version="1.1" xmlns="http://www.w3.org/2000/svg" xmlns:xlink="http://www.w3.org/1999/xlink" viewBox="0 0 43.6768 34.2041">
 <g>
  <rect height="34.2041" opacity="0" width="43.6768" x="0" y="0"/>
  <path d="M37.085 30.2734C37.8906 30.8105 38.8916 30.6396 39.4775 29.7852C41.9189 26.3916 43.335 21.7773 43.335 17.0898C43.335 12.4023 41.9434 7.73926 39.4775 4.39453C38.8916 3.54004 37.8906 3.36914 37.085 3.90625C36.2793 4.44336 36.1328 5.46875 36.7676 6.37207C38.7939 9.25293 39.9414 13.1348 39.9414 17.0898C39.9414 21.0449 38.7451 24.9023 36.7676 27.8076C36.1572 28.7109 36.2793 29.7363 37.085 30.2734Z" fill="currentColor"/>
  <path d="M29.7607 25.3174C30.4932 25.8057 31.5186 25.6592 32.1045 24.8047C33.5693 22.8516 34.4238 19.9707 34.4238 17.0898C34.4238 14.209 33.5693 11.3525 32.1045 9.375C31.5186 8.52051 30.4932 8.37402 29.7607 8.88672C28.8818 9.49707 28.7354 10.5713 29.4189 11.4746C30.4443 12.8662 31.0303 14.9902 31.0303 17.0898C31.0303 19.1895 30.4199 21.2891 29.4189 22.7051C28.7598 23.6328 28.8818 24.6826 29.7607 25.3174Z" fill="currentColor"/>
  <path d="M20.8008 34.2041C22.1436 34.2041 23.1689 33.2275 23.1689 31.8604L23.1689 2.49023C23.1689 1.14746 22.1436 0.0244141 20.752 0.0244141C19.7754 0.0244141 19.1406 0.439453 18.0176 1.48926L9.98535 8.95996C9.8877 9.05762 9.74121 9.13086 9.59473 9.13086L4.24805 9.13086C1.44043 9.13086 0 10.5713 0 13.5986L0 20.6543C0 23.6572 1.44043 25.1221 4.24805 25.1221L9.59473 25.1221C9.74121 25.1221 9.8877 25.1709 9.98535 25.2686L18.0176 32.8857C19.0186 33.8135 19.8242 34.2041 20.8008 34.2041Z" fill="currentColor"/>
 </g>
</svg>

