<?xml version="1.0" encoding="UTF-8"?>
<!--Generator: Apple Native CoreSVG 341-->
<!DOCTYPE svg
PUBLIC "-//W3C//DTD SVG 1.1//EN"
       "http://www.w3.org/Graphics/SVG/1.1/DTD/svg11.dtd">
<svg version="1.1" xmlns="http://www.w3.org/2000/svg" xmlns:xlink="http://www.w3.org/1999/xlink" viewBox="0 0 42.2365 43.9943">
 <g>
  <rect height="43.9943" opacity="0" width="42.2365" x="0" y="0"/>
  <path d="M30.0529 37.5763C29.7404 38.4976 28.893 39.0992 27.8199 39.0992C26.8433 39.0992 26.0377 38.7086 25.0367 37.7808L17.0289 30.1636C16.9312 30.066 16.7603 30.0172 16.6138 30.0172L11.2672 30.0172C8.45954 30.0172 7.01911 28.5523 7.01911 25.5494L7.01911 18.4937C7.01911 17.1555 7.30057 16.1274 7.85828 15.3979ZM30.1881 7.38532L30.1881 26.1677L17.462 13.451L25.0367 6.38435C26.1597 5.33454 26.7945 4.9195 27.7711 4.9195C29.1871 4.9195 30.1881 6.04255 30.1881 7.38532Z" fill="currentColor"/>
  <path d="M36.9996 41.1011C37.6588 41.7603 38.733 41.7603 39.3677 41.1011C40.0025 40.442 40.0269 39.3922 39.3677 38.733L6.01814 5.40778C5.35896 4.77302 4.28474 4.7486 3.62556 5.40778C2.99079 6.04255 2.99079 7.1656 3.62556 7.80036Z" fill="currentColor"/>
 </g>
</svg>
