<?xml version="1.0" encoding="UTF-8"?>
<!--Generator: Apple Native CoreSVG 341-->
<!DOCTYPE svg
PUBLIC "-//W3C//DTD SVG 1.1//EN"
       "http://www.w3.org/Graphics/SVG/1.1/DTD/svg11.dtd">
<svg version="1.1" xmlns="http://www.w3.org/2000/svg" xmlns:xlink="http://www.w3.org/1999/xlink" viewBox="0 0 34.7412 34.2041">
 <g>
  <rect height="34.2041" opacity="0" width="34.7412" x="0" y="0"/>
  <path d="M29.7363 25.3174C30.4688 25.8057 31.4941 25.6592 32.0801 24.8047C33.5449 22.8516 34.3994 19.9707 34.3994 17.0898C34.3994 14.209 33.5449 11.3525 32.0801 9.375C31.4941 8.52051 30.4688 8.37402 29.7363 8.88672C28.8574 9.49707 28.7109 10.5713 29.3945 11.4746C30.4199 12.8662 31.0059 14.9902 31.0059 17.0898C31.0059 19.1895 30.3955 21.2891 29.3945 22.7051C28.7354 23.6328 28.8574 24.6826 29.7363 25.3174Z" fill="currentColor"/>
  <path d="M20.8008 34.2041C22.1436 34.2041 23.1689 33.2275 23.1689 31.8604L23.1689 2.49023C23.1689 1.14746 22.1436 0.0244141 20.752 0.0244141C19.7754 0.0244141 19.1162 0.439453 18.0176 1.48926L9.98535 8.95996C9.8877 9.05762 9.74121 9.13086 9.59473 9.13086L4.24805 9.13086C1.44043 9.13086 0 10.5713 0 13.5986L0 20.6543C0 23.6572 1.44043 25.1221 4.24805 25.1221L9.59473 25.1221C9.74121 25.1221 9.8877 25.1709 9.98535 25.2686L18.0176 32.8857C19.0186 33.8135 19.8242 34.2041 20.8008 34.2041Z" fill="currentColor"/>
 </g>
</svg>
