<?xml version="1.0" encoding="UTF-8"?>
<!--Generator: Apple Native CoreSVG 341-->
<!DOCTYPE svg
PUBLIC "-//W3C//DTD SVG 1.1//EN"
       "http://www.w3.org/Graphics/SVG/1.1/DTD/svg11.dtd">
<svg version="1.1" xmlns="http://www.w3.org/2000/svg" xmlns:xlink="http://www.w3.org/1999/xlink" viewBox="0 0 43.3116 43.8721">
 <g>
  <rect height="43.8721" opacity="0" width="43.3116" x="0" y="0"/>
  <path d="M8.22807 40.6982C9.13139 41.3818 10.23 41.1133 11.5484 40.1611L21.4849 32.8613L31.4458 40.1611C32.7398 41.1133 33.8384 41.3818 34.7417 40.6982C35.6206 40.0391 35.7915 38.916 35.2544 37.4023L31.3238 25.708L41.358 18.5059C42.6763 17.6025 43.2378 16.6016 42.8716 15.5273C42.5298 14.502 41.5044 14.0137 39.8931 14.0137L27.5884 14.0137L23.8531 2.34375C23.3648 0.805664 22.608 0 21.4849 0C20.3863 0 19.6294 0.805664 19.1167 2.34375L15.3814 14.0137L3.0767 14.0137C1.46537 14.0137 0.464397 14.502 0.0981859 15.5273C-0.243611 16.6016 0.317912 17.6025 1.61186 18.5059L11.646 25.708L7.71537 37.4023C7.17826 38.916 7.34916 40.0391 8.22807 40.6982Z" fill="currentColor"/>
 </g>
</svg>
