<?xml version="1.0" encoding="UTF-8"?>
<!--Generator: Apple Native CoreSVG 341-->
<!DOCTYPE svg
PUBLIC "-//W3C//DTD SVG 1.1//EN"
       "http://www.w3.org/Graphics/SVG/1.1/DTD/svg11.dtd">
<svg version="1.1" xmlns="http://www.w3.org/2000/svg" xmlns:xlink="http://www.w3.org/1999/xlink" viewBox="0 0 39.7705 39.4287">
 <g>
  <rect height="39.4287" opacity="0" width="39.7705" x="0" y="0"/>
  <path d="M19.7021 39.4043C30.5908 39.4043 39.4287 30.5908 39.4287 19.7021C39.4287 8.81348 30.5908 0 19.7266 0C18.6768 0 18.1152 0.683594 18.1152 1.75781L18.1152 7.86133C18.1152 8.81348 18.7744 9.57031 19.7021 9.57031C20.6543 9.57031 21.3135 8.81348 21.3135 7.86133L21.3135 3.80859C28.833 4.54102 35.6934 10.8643 35.6934 19.7021C35.6934 28.54 28.54 35.6934 19.7021 35.6934C10.8643 35.6934 3.73535 28.54 3.73535 19.7266C3.73535 15.7959 5.12695 12.2803 7.37305 9.5459C8.03223 8.69141 8.03223 7.59277 7.2998 6.83594C6.56738 6.05469 5.34668 6.12793 4.56543 7.10449C1.7334 10.5225 0 14.9414 0 19.7021C0 30.5908 8.83789 39.4043 19.7021 39.4043Z" fill="currentColor"/>
  <path d="M19.7021 22.9492C21.5088 22.9492 22.9492 21.5088 22.9492 19.7021C22.9492 18.6279 22.4365 17.6514 21.582 17.0654L12.0361 10.3516C11.0107 9.61914 9.93652 10.6934 10.6201 11.7432L16.8457 21.2646C17.5049 22.2656 18.5059 22.9492 19.7021 22.9492Z" fill="currentColor"/>
 </g>
</svg>
