<?xml version="1.0" encoding="UTF-8"?>
<!--Generator: Apple Native CoreSVG 341-->
<!DOCTYPE svg
PUBLIC "-//W3C//DTD SVG 1.1//EN"
       "http://www.w3.org/Graphics/SVG/1.1/DTD/svg11.dtd">
<svg version="1.1" xmlns="http://www.w3.org/2000/svg" xmlns:xlink="http://www.w3.org/1999/xlink" viewBox="0 0 30.9998 30.7007">
 <g>
  <rect height="30.7007" opacity="0" width="30.9998" x="0" y="0"/>
  <path d="M27.3163 0.592041L0.558509 27.3499C-0.173913 28.0823-0.198327 29.3762 0.558509 30.1331C1.33976 30.8899 2.60929 30.8899 3.36613 30.1331L30.0995 3.39966C30.8564 2.64282 30.8808 1.34888 30.0995 0.592041C29.3183-0.140381 28.0732-0.164795 27.3163 0.592041ZM30.0995 27.3499L3.36613 0.592041C2.60929-0.140381 1.31535-0.164795 0.558509 0.592041C-0.173913 1.37329-0.173913 2.64282 0.558509 3.39966L27.3163 30.1331C28.0487 30.8899 29.3427 30.8899 30.0995 30.1331C30.8564 29.3518 30.8564 28.0823 30.0995 27.3499Z" fill="currentColor"/>
 </g>
</svg>
